<svg width="1920" height="1080" viewBox="0 0 1920 1080" xmlns="http://www.w3.org/2000/svg">
  <defs>
    <!-- 主背景渐变 -->
    <linearGradient id="mainGradient" x1="0%" y1="0%" x2="100%" y2="100%">
      <stop offset="0%" style="stop-color:#0f0f23;stop-opacity:1" />
      <stop offset="20%" style="stop-color:#1a1a3a;stop-opacity:1" />
      <stop offset="40%" style="stop-color:#2d1b69;stop-opacity:1" />
      <stop offset="60%" style="stop-color:#4c1d95;stop-opacity:1" />
      <stop offset="80%" style="stop-color:#7c3aed;stop-opacity:1" />
      <stop offset="100%" style="stop-color:#a855f7;stop-opacity:1" />
    </linearGradient>
    
    <!-- 科技感网格渐变 -->
    <linearGradient id="gridGradient" x1="0%" y1="0%" x2="100%" y2="100%">
      <stop offset="0%" style="stop-color:#8b5cf6;stop-opacity:0.1" />
      <stop offset="50%" style="stop-color:#a855f7;stop-opacity:0.05" />
      <stop offset="100%" style="stop-color:#c084fc;stop-opacity:0.1" />
    </linearGradient>
    
    <!-- 光效渐变 -->
    <radialGradient id="lightEffect1" cx="20%" cy="30%" r="60%">
      <stop offset="0%" style="stop-color:#8b5cf6;stop-opacity:0.4" />
      <stop offset="50%" style="stop-color:#8b5cf6;stop-opacity:0.1" />
      <stop offset="100%" style="stop-color:#8b5cf6;stop-opacity:0" />
    </radialGradient>
    
    <radialGradient id="lightEffect2" cx="80%" cy="70%" r="50%">
      <stop offset="0%" style="stop-color:#a855f7;stop-opacity:0.3" />
      <stop offset="50%" style="stop-color:#a855f7;stop-opacity:0.08" />
      <stop offset="100%" style="stop-color:#a855f7;stop-opacity:0" />
    </radialGradient>
    
    <radialGradient id="lightEffect3" cx="40%" cy="80%" r="40%">
      <stop offset="0%" style="stop-color:#c084fc;stop-opacity:0.25" />
      <stop offset="50%" style="stop-color:#c084fc;stop-opacity:0.06" />
      <stop offset="100%" style="stop-color:#c084fc;stop-opacity:0" />
    </radialGradient>
    
    <!-- 六边形图案 -->
    <pattern id="hexPattern" x="0" y="0" width="120" height="104" patternUnits="userSpaceOnUse">
      <path d="M60 0 L120 30 L120 74 L60 104 L0 74 L0 30 Z" fill="none" stroke="#8b5cf6" stroke-width="0.5" opacity="0.1"/>
    </pattern>
    
    <!-- 点阵图案 -->
    <pattern id="dotPattern" x="0" y="0" width="40" height="40" patternUnits="userSpaceOnUse">
      <circle cx="20" cy="20" r="1" fill="#a855f7" opacity="0.3"/>
    </pattern>
    
    <!-- 装饰性圆形渐变 -->
    <radialGradient id="decorCircle1" cx="50%" cy="50%" r="50%">
      <stop offset="0%" style="stop-color:#ffffff;stop-opacity:0.15" />
      <stop offset="100%" style="stop-color:#ffffff;stop-opacity:0" />
    </radialGradient>
    
    <radialGradient id="decorCircle2" cx="50%" cy="50%" r="50%">
      <stop offset="0%" style="stop-color:#8b5cf6;stop-opacity:0.2" />
      <stop offset="100%" style="stop-color:#8b5cf6;stop-opacity:0" />
    </radialGradient>
  </defs>
  
  <!-- 主背景 -->
  <rect width="1920" height="1080" fill="url(#mainGradient)"/>
  
  <!-- 科技感网格 -->
  <rect width="1920" height="1080" fill="url(#hexPattern)"/>
  
  <!-- 点阵背景 -->
  <rect width="1920" height="1080" fill="url(#dotPattern)"/>
  
  <!-- 主要光效 -->
  <circle cx="384" cy="324" r="500" fill="url(#lightEffect1)"/>
  <circle cx="1536" cy="756" r="400" fill="url(#lightEffect2)"/>
  <circle cx="768" cy="864" r="350" fill="url(#lightEffect3)"/>
  
  <!-- 装饰性几何元素 -->
  <!-- 左上角装饰 -->
  <g opacity="0.08">
    <circle cx="200" cy="200" r="180" fill="url(#decorCircle1)"/>
    <circle cx="200" cy="200" r="120" fill="url(#decorCircle2)"/>
  </g>
  
  <!-- 右上角装饰 -->
  <g opacity="0.06">
    <circle cx="1720" cy="150" r="150" fill="url(#decorCircle1)"/>
    <circle cx="1720" cy="150" r="100" fill="url(#decorCircle2)"/>
  </g>
  
  <!-- 左下角装饰 -->
  <g opacity="0.1">
    <circle cx="300" cy="880" r="200" fill="url(#decorCircle1)"/>
    <circle cx="300" cy="880" r="140" fill="url(#decorCircle2)"/>
  </g>
  
  <!-- 右下角装饰 -->
  <g opacity="0.07">
    <circle cx="1620" cy="930" r="160" fill="url(#decorCircle1)"/>
    <circle cx="1620" cy="930" r="110" fill="url(#decorCircle2)"/>
  </g>
  
  <!-- 中心装饰性元素 -->
  <g opacity="0.05">
    <!-- 中心大圆 -->
    <circle cx="960" cy="540" r="350" fill="url(#decorCircle1)"/>
    <circle cx="960" cy="540" r="250" fill="url(#decorCircle2)"/>
    
    <!-- 中心小圆 -->
    <circle cx="960" cy="540" r="150" fill="url(#decorCircle1)"/>
  </g>
  
  <!-- 科技感线条 -->
  <g opacity="0.04" stroke="#8b5cf6" stroke-width="1" fill="none">
    <!-- 对角线 -->
    <line x1="0" y1="0" x2="1920" y2="1080"/>
    <line x1="1920" y1="0" x2="0" y2="1080"/>
    
    <!-- 水平线 -->
    <line x1="0" y1="216" x2="1920" y2="216"/>
    <line x1="0" y1="432" x2="1920" y2="432"/>
    <line x1="0" y1="648" x2="1920" y2="648"/>
    <line x1="0" y1="864" x2="1920" y2="864"/>
    
    <!-- 垂直线 -->
    <line x1="384" y1="0" x2="384" y2="1080"/>
    <line x1="768" y1="0" x2="768" y2="1080"/>
    <line x1="1152" y1="0" x2="1152" y2="1080"/>
    <line x1="1536" y1="0" x2="1536" y2="1080"/>
  </g>
  
  <!-- 六边形装饰 -->
  <g opacity="0.06" fill="none" stroke="#a855f7" stroke-width="0.5">
    <!-- 左上角六边形 -->
    <path d="M100 100 L160 130 L160 174 L100 204 L40 174 L40 130 Z"/>
    <path d="M300 200 L360 230 L360 274 L300 304 L240 274 L240 230 Z"/>
    
    <!-- 右上角六边形 -->
    <path d="M1820 100 L1880 130 L1880 174 L1820 204 L1760 174 L1760 130 Z"/>
    <path d="M1620 200 L1680 230 L1680 274 L1620 304 L1560 274 L1560 230 Z"/>
    
    <!-- 左下角六边形 -->
    <path d="M100 980 L160 1010 L160 1054 L100 1084 L40 1054 L40 1010 Z"/>
    <path d="M300 880 L360 910 L360 954 L300 984 L240 954 L240 910 Z"/>
    
    <!-- 右下角六边形 -->
    <path d="M1820 980 L1880 1010 L1880 1054 L1820 1084 L1760 1054 L1760 1010 Z"/>
    <path d="M1620 880 L1680 910 L1680 954 L1620 984 L1560 954 L1560 910 Z"/>
  </g>
  
  <!-- 微妙的噪点效果 -->
  <g opacity="0.03">
    <circle cx="150" cy="150" r="1" fill="#ffffff"/>
    <circle cx="350" cy="250" r="1" fill="#ffffff"/>
    <circle cx="550" cy="350" r="1" fill="#ffffff"/>
    <circle cx="750" cy="450" r="1" fill="#ffffff"/>
    <circle cx="950" cy="550" r="1" fill="#ffffff"/>
    <circle cx="1150" cy="650" r="1" fill="#ffffff"/>
    <circle cx="1350" cy="750" r="1" fill="#ffffff"/>
    <circle cx="1550" cy="850" r="1" fill="#ffffff"/>
    <circle cx="1750" cy="950" r="1" fill="#ffffff"/>
    <circle cx="250" cy="750" r="1" fill="#ffffff"/>
    <circle cx="450" cy="850" r="1" fill="#ffffff"/>
    <circle cx="650" cy="950" r="1" fill="#ffffff"/>
    <circle cx="850" cy="1050" r="1" fill="#ffffff"/>
    <circle cx="1050" cy="950" r="1" fill="#ffffff"/>
    <circle cx="1250" cy="850" r="1" fill="#ffffff"/>
    <circle cx="1450" cy="750" r="1" fill="#ffffff"/>
    <circle cx="1650" cy="650" r="1" fill="#ffffff"/>
    <circle cx="1850" cy="550" r="1" fill="#ffffff"/>
  </g>
  
  <!-- 动态光效线条 -->
  <g opacity="0.02" stroke="#c084fc" stroke-width="1" fill="none">
    <!-- 左上到右下 -->
    <path d="M0 0 Q480 270 960 540 T1920 1080"/>
    <!-- 右上到左下 -->
    <path d="M1920 0 Q1440 270 960 540 T0 1080"/>
    <!-- 水平波浪 -->
    <path d="M0 270 Q480 200 960 270 T1920 270"/>
    <path d="M0 810 Q480 740 960 810 T1920 810"/>
  </g>
</svg>
